<svg width="20" height="20" viewBox="0 0 20 20" fill="none" xmlns="http://www.w3.org/2000/svg">
<rect width="20" height="20" rx="10" fill="#EFF6FF"/>
<path d="M10 7.5V14.5M10 7.5C10 6.96957 9.78929 6.46086 9.41421 6.08579C9.03914 5.71071 8.53043 5.5 8 5.5H5.5C5.36739 5.5 5.24021 5.55268 5.14645 5.64645C5.05268 5.74021 5 5.86739 5 6V12.5C5 12.6326 5.05268 12.7598 5.14645 12.8536C5.24021 12.9473 5.36739 13 5.5 13H8.5C8.89782 13 9.27936 13.158 9.56066 13.4393C9.84196 13.7206 10 14.1022 10 14.5M10 7.5C10 6.96957 10.2107 6.46086 10.5858 6.08579C10.9609 5.71071 11.4696 5.5 12 5.5H14.5C14.6326 5.5 14.7598 5.55268 14.8536 5.64645C14.9473 5.74021 15 5.86739 15 6V12.5C15 12.6326 14.9473 12.7598 14.8536 12.8536C14.7598 12.9473 14.6326 13 14.5 13H11.5C11.1022 13 10.7206 13.158 10.4393 13.4393C10.158 13.7206 10 14.1022 10 14.5" stroke="#60A5FA" stroke-linecap="round" stroke-linejoin="round"/>
</svg>
