<svg width="20" height="20" viewBox="0 0 20 20" fill="none" xmlns="http://www.w3.org/2000/svg">
<path d="M4.99935 18.3333V3.33329C4.99935 2.89127 5.17494 2.46734 5.4875 2.15478C5.80007 1.84222 6.22399 1.66663 6.66602 1.66663H13.3327C13.7747 1.66663 14.1986 1.84222 14.5112 2.15478C14.8238 2.46734 14.9993 2.89127 14.9993 3.33329V18.3333M4.99935 18.3333H14.9993M4.99935 18.3333H3.33268C2.89065 18.3333 2.46673 18.1577 2.15417 17.8451C1.84161 17.5326 1.66602 17.1087 1.66602 16.6666V11.6666C1.66602 11.2246 1.84161 10.8007 2.15417 10.4881C2.46673 10.1756 2.89065 9.99996 3.33268 9.99996H4.99935M14.9993 18.3333H16.666C17.108 18.3333 17.532 18.1577 17.8445 17.8451C18.1571 17.5326 18.3327 17.1087 18.3327 16.6666V9.16663C18.3327 8.7246 18.1571 8.30068 17.8445 7.98812C17.532 7.67555 17.108 7.49996 16.666 7.49996H14.9993M8.33268 4.99996H11.666M8.33268 8.33329H11.666M8.33268 11.6666H11.666M8.33268 15H11.666" stroke="#45556C" stroke-width="1.25" stroke-linecap="round" stroke-linejoin="round"/>
</svg>
