<svg width="20" height="20" viewBox="0 0 20 20" fill="none" xmlns="http://www.w3.org/2000/svg">
<path d="M17.9494 12.5H14.166C13.724 12.5 13.3001 12.6756 12.9875 12.9881C12.6749 13.3007 12.4993 13.7246 12.4993 14.1666V17.95M5.83268 2.78337V4.1667C5.83268 4.82974 6.09607 5.46563 6.56492 5.93447C7.03376 6.40331 7.66964 6.6667 8.33268 6.6667C8.77471 6.6667 9.19863 6.84229 9.51119 7.15486C9.82375 7.46742 9.99935 7.89134 9.99935 8.33337C9.99935 9.25003 10.7493 10 11.666 10C12.108 10 12.532 9.82444 12.8445 9.51188C13.1571 9.19932 13.3327 8.77539 13.3327 8.33337C13.3327 7.4167 14.0827 6.6667 14.9993 6.6667H17.641M9.16606 18.2916V15C9.16606 14.5579 8.99046 14.134 8.6779 13.8214C8.36534 13.5089 7.94142 13.3333 7.49939 13.3333C7.05736 13.3333 6.63344 13.1577 6.32088 12.8451C6.00832 12.5326 5.83272 12.1087 5.83272 11.6666V10.8333C5.83272 10.3913 5.65713 9.96734 5.34457 9.65478C5.03201 9.34222 4.60808 9.16663 4.16606 9.16663H1.70772M18.3327 9.99996C18.3327 14.6023 14.6017 18.3333 9.99935 18.3333C5.39698 18.3333 1.66602 14.6023 1.66602 9.99996C1.66602 5.39759 5.39698 1.66663 9.99935 1.66663C14.6017 1.66663 18.3327 5.39759 18.3327 9.99996Z" stroke="#45556C" stroke-width="1.25" stroke-linecap="round" stroke-linejoin="round"/>
</svg>
