<svg width="18" height="18" viewBox="0 0 18 18" fill="none" xmlns="http://www.w3.org/2000/svg">
<path d="M1.5 7.33329H16.5V3.99996C16.5 3.55793 16.3244 3.13401 16.0118 2.82145C15.6993 2.50889 15.2754 2.33329 14.8333 2.33329H3.16667C2.72464 2.33329 2.30072 2.50889 1.98816 2.82145C1.67559 3.13401 1.5 3.55793 1.5 3.99996V15.6666C1.5 16.1087 1.67559 16.5326 1.98816 16.8451C2.30072 17.1577 2.72464 17.3333 3.16667 17.3333H9M5.66667 0.666626V3.99996M12.3333 0.666626V3.99996M16.7418 11.2499C16.4578 10.9673 16.0965 10.7754 15.7034 10.6982C15.3103 10.6211 14.9031 10.6623 14.5335 10.8166C14.2835 10.9166 14.0585 11.0666 13.8668 11.2582L13.5835 11.5416L13.2918 11.2582C13.0088 10.9743 12.6478 10.7807 12.2547 10.7021C11.8616 10.6235 11.4539 10.6633 11.0835 10.8166C10.8335 10.9166 10.6168 11.0666 10.4251 11.2582C9.63347 12.0416 9.5918 13.3666 10.5918 14.3749L13.5835 17.3332L16.5835 14.3749C17.5835 13.3666 17.5335 12.0416 16.7418 11.2582V11.2499Z" stroke="#45556C" stroke-width="1.25" stroke-linecap="round" stroke-linejoin="round"/>
</svg>
