<svg width="20" height="20" viewBox="0 0 20 20" fill="none" xmlns="http://www.w3.org/2000/svg">
<rect width="20" height="20" rx="10" fill="#F8FAFC"/>
<path d="M10 10H10.005M12 7V6C12 5.73478 11.8946 5.48043 11.7071 5.29289C11.5196 5.10536 11.2652 5 11 5H9C8.73478 5 8.48043 5.10536 8.29289 5.29289C8.10536 5.48043 8 5.73478 8 6V7M15 10.5C13.5164 11.4795 11.7778 12.0017 10 12.0017C8.22223 12.0017 6.4836 11.4795 5 10.5M6 7H14C14.5523 7 15 7.44772 15 8V13C15 13.5523 14.5523 14 14 14H6C5.44772 14 5 13.5523 5 13V8C5 7.44772 5.44772 7 6 7Z" stroke="#020618" stroke-linecap="round" stroke-linejoin="round"/>
</svg>
