<svg width="20" height="20" viewBox="0 0 20 20" fill="none" xmlns="http://www.w3.org/2000/svg">
<path d="M10.8327 4.16663V5.83329M10.8327 14.1666V15.8333M10.8327 9.16663V10.8333M1.66602 7.49996C2.32906 7.49996 2.96494 7.76335 3.43378 8.23219C3.90262 8.70103 4.16602 9.33692 4.16602 9.99996C4.16602 10.663 3.90262 11.2989 3.43378 11.7677C2.96494 12.2366 2.32906 12.5 1.66602 12.5V14.1666C1.66602 14.6087 1.84161 15.0326 2.15417 15.3451C2.46673 15.6577 2.89065 15.8333 3.33268 15.8333H16.666C17.108 15.8333 17.532 15.6577 17.8445 15.3451C18.1571 15.0326 18.3327 14.6087 18.3327 14.1666V12.5C17.6696 12.5 17.0338 12.2366 16.5649 11.7677C16.0961 11.2989 15.8327 10.663 15.8327 9.99996C15.8327 9.33692 16.0961 8.70103 16.5649 8.23219C17.0338 7.76335 17.6696 7.49996 18.3327 7.49996V5.83329C18.3327 5.39127 18.1571 4.96734 17.8445 4.65478C17.532 4.34222 17.108 4.16663 16.666 4.16663H3.33268C2.89065 4.16663 2.46673 4.34222 2.15417 4.65478C1.84161 4.96734 1.66602 5.39127 1.66602 5.83329V7.49996Z" stroke="#45556C" stroke-width="1.25" stroke-linecap="round" stroke-linejoin="round"/>
</svg>
