<svg width="20" height="20" viewBox="0 0 20 20" fill="none" xmlns="http://www.w3.org/2000/svg">
<path d="M11.6673 1.66663V4.99996C11.6673 5.44199 11.8429 5.86591 12.1555 6.17847C12.468 6.49103 12.892 6.66663 13.334 6.66663H16.6673M8.33398 7.49996H6.66732M13.334 10.8333H6.66732M13.334 14.1666H6.66732M12.5007 1.66663H5.00065C4.55862 1.66663 4.1347 1.84222 3.82214 2.15478C3.50958 2.46734 3.33398 2.89127 3.33398 3.33329V16.6666C3.33398 17.1087 3.50958 17.5326 3.82214 17.8451C4.1347 18.1577 4.55862 18.3333 5.00065 18.3333H15.0007C15.4427 18.3333 15.8666 18.1577 16.1792 17.8451C16.4917 17.5326 16.6673 17.1087 16.6673 16.6666V5.83329L12.5007 1.66663Z" stroke="#45556C" stroke-width="1.25" stroke-linecap="round" stroke-linejoin="round"/>
</svg>
