<svg width="100" height="100" viewBox="0 0 100 100" fill="none" xmlns="http://www.w3.org/2000/svg">
<path d="M7.52317 35.3881C7.52317 35.3881 11.3732 19.1161 26.5452 11.2001C41.7172 3.28412 59.8112 6.65212 74.5452 8.98012C89.2792 11.3081 98.6512 22.5801 97.6492 36.1021C96.6472 49.6241 84.7652 50.9021 75.6932 64.4601C66.6212 78.0181 66.1512 83.0601 51.5372 89.2921C36.9232 95.5241 18.1552 85.2701 10.9372 67.0921C3.71917 48.9141 7.52317 35.3881 7.52317 35.3881Z" fill="#1DB056"/>
<path opacity="0.8" d="M7.52317 35.3881C7.52317 35.3881 11.3732 19.1161 26.5452 11.2001C41.7172 3.28412 59.8112 6.65212 74.5452 8.98012C89.2792 11.3081 98.6512 22.5801 97.6492 36.1021C96.6472 49.6241 84.7652 50.9021 75.6932 64.4601C66.6212 78.0181 66.1512 83.0601 51.5372 89.2921C36.9232 95.5241 18.1552 85.2701 10.9372 67.0921C3.71917 48.9141 7.52317 35.3881 7.52317 35.3881Z" fill="white"/>
<path d="M30.6744 15.6C30.8542 14.6353 30.7455 13.6389 30.3618 12.7357C29.9781 11.8324 29.3366 11.0624 28.5174 10.5221C27.6982 9.98172 26.7378 9.69501 25.7565 9.69784C24.7751 9.70067 23.8164 9.99291 23.0004 10.538C22.4099 9.09291 21.3355 7.89805 19.961 7.15796C18.5866 6.41787 16.9976 6.17859 15.4662 6.4811C13.9347 6.78361 12.5561 7.60908 11.5662 8.81619C10.5764 10.0233 10.037 11.5369 10.0404 13.098C10.0404 13.18 10.0404 13.262 10.0404 13.346C9.07223 13.6201 8.22799 14.2191 7.64958 15.0424C7.07117 15.8657 6.79385 16.8631 6.86426 17.8668C6.93466 18.8705 7.34849 19.8194 8.03617 20.5539C8.72385 21.2884 9.64345 21.7637 10.6404 21.9V21.946H30.4604C31.3019 21.9744 32.1202 21.6673 32.7353 21.0923C33.3505 20.5173 33.712 19.7215 33.7404 18.88C33.7687 18.0384 33.4617 17.2201 32.8867 16.605C32.3117 15.9899 31.5159 15.6284 30.6744 15.6Z" stroke="#263238" stroke-width="0.2" stroke-miterlimit="10"/>
<path d="M45.752 35.5639V35.2639" stroke="#263238" stroke-width="0.2" stroke-linecap="round" stroke-linejoin="round"/>
<path d="M45.752 34.672V13.606" stroke="#263238" stroke-width="0.2" stroke-linecap="round" stroke-linejoin="round" stroke-dasharray="0.59 0.59"/>
<path d="M45.7512 13.31V13.01H45.4512" stroke="#263238" stroke-width="0.2" stroke-linecap="round" stroke-linejoin="round"/>
<path d="M44.8488 13.01H33.0508" stroke="#263238" stroke-width="0.2" stroke-linecap="round" stroke-linejoin="round" stroke-dasharray="0.6 0.6"/>
<path d="M32.7473 13.01H32.4473" stroke="#263238" stroke-width="0.2" stroke-linecap="round" stroke-linejoin="round"/>
<path d="M46.7499 35.2739L45.7519 36.9999L44.7559 35.2739H46.7499Z" fill="#263238"/>
<path d="M49.348 27.6819H41.916V17.3599H47.184L49.348 19.5059V27.6819Z" fill="white" stroke="#263238" stroke-width="0.2" stroke-linecap="round" stroke-linejoin="round"/>
<path d="M47.1836 17.3599V19.4679H49.3476L47.1836 17.3599Z" fill="white" stroke="#263238" stroke-width="0.2" stroke-linecap="round" stroke-linejoin="round"/>
<path d="M43.0645 20.834H48.1985" stroke="#263238" stroke-width="0.2" stroke-linecap="round" stroke-linejoin="round"/>
<path d="M43.0645 22.2339H48.1985" stroke="#263238" stroke-width="0.2" stroke-linecap="round" stroke-linejoin="round"/>
<path d="M43.0645 23.634H48.1985" stroke="#263238" stroke-width="0.2" stroke-linecap="round" stroke-linejoin="round"/>
<path d="M43.0645 25.0339H48.1985" stroke="#263238" stroke-width="0.2" stroke-linecap="round" stroke-linejoin="round"/>
<path d="M34.9965 17.6919H27.5645V7.36987H32.8325L34.9965 9.51587V17.6919Z" fill="white" stroke="#263238" stroke-width="0.2" stroke-linecap="round" stroke-linejoin="round"/>
<path d="M32.832 7.36987V9.47787H34.996L32.832 7.36987Z" fill="white" stroke="#263238" stroke-width="0.2" stroke-linecap="round" stroke-linejoin="round"/>
<path d="M28.7129 10.844H33.8469" stroke="#263238" stroke-width="0.2" stroke-linecap="round" stroke-linejoin="round"/>
<path d="M28.7129 12.2439H33.8469" stroke="#263238" stroke-width="0.2" stroke-linecap="round" stroke-linejoin="round"/>
<path d="M28.7129 13.644H33.8469" stroke="#263238" stroke-width="0.2" stroke-linecap="round" stroke-linejoin="round"/>
<path d="M28.7129 15.0439H33.8469" stroke="#263238" stroke-width="0.2" stroke-linecap="round" stroke-linejoin="round"/>
<path d="M16.4805 83.2V26.228" stroke="#263238" stroke-width="0.2" stroke-linecap="round" stroke-linejoin="round" stroke-dasharray="0.6 0.6"/>
<path d="M17.4764 26.52L16.4804 24.792L15.4824 26.52H17.4764Z" fill="#263238"/>
<path d="M20.303 73.716H12.873V63.394H18.139L20.303 65.54V73.716Z" fill="white" stroke="#263238" stroke-width="0.2" stroke-linecap="round" stroke-linejoin="round"/>
<path d="M18.1406 63.394V65.502H20.3046L18.1406 63.394Z" fill="white" stroke="#263238" stroke-width="0.2" stroke-linecap="round" stroke-linejoin="round"/>
<path d="M14.0215 66.8679H19.1555" stroke="#263238" stroke-width="0.2" stroke-linecap="round" stroke-linejoin="round"/>
<path d="M14.0215 68.2681H19.1555" stroke="#263238" stroke-width="0.2" stroke-linecap="round" stroke-linejoin="round"/>
<path d="M14.0215 69.668H19.1555" stroke="#263238" stroke-width="0.2" stroke-linecap="round" stroke-linejoin="round"/>
<path d="M14.0215 71.0679H19.1555" stroke="#263238" stroke-width="0.2" stroke-linecap="round" stroke-linejoin="round"/>
<path d="M20.303 46.3159H12.873V35.9939H18.139L20.303 38.1399V46.3159Z" fill="white" stroke="#263238" stroke-width="0.2" stroke-linecap="round" stroke-linejoin="round"/>
<path d="M18.1406 35.9939V38.1019H20.3046L18.1406 35.9939Z" fill="white" stroke="#263238" stroke-width="0.2" stroke-linecap="round" stroke-linejoin="round"/>
<path d="M14.0215 39.468H19.1555" stroke="#263238" stroke-width="0.2" stroke-linecap="round" stroke-linejoin="round"/>
<path d="M14.0215 40.8679H19.1555" stroke="#263238" stroke-width="0.2" stroke-linecap="round" stroke-linejoin="round"/>
<path d="M14.0215 42.2681H19.1555" stroke="#263238" stroke-width="0.2" stroke-linecap="round" stroke-linejoin="round"/>
<path d="M14.0215 43.668H19.1555" stroke="#263238" stroke-width="0.2" stroke-linecap="round" stroke-linejoin="round"/>
<path d="M58.5717 31.418C58.5717 31.418 53.2197 33.45 52.3997 34.2C51.5797 34.95 46.8457 50.19 46.8457 50.19H79.8457C79.8457 50.19 77.3997 39.954 76.7997 36.498C76.1997 33.042 73.5477 32.298 72.1997 32.026C70.8517 31.754 58.5717 31.418 58.5717 31.418Z" fill="#263238" stroke="#263238" stroke-width="0.2" stroke-linecap="round" stroke-linejoin="round"/>
<path d="M67.585 34.308L66.877 50.184H72.599L70.299 32.918L67.585 34.308Z" fill="#1DB056" stroke="#263238" stroke-width="0.2" stroke-linecap="round" stroke-linejoin="round"/>
<path d="M59.0281 30.0859C59.0281 30.0859 58.1441 31.3839 58.3201 31.7979C58.4961 32.2119 60.5041 35.3379 62.5101 35.6919C64.5161 36.0459 67.0521 34.9239 68.4101 34.0919C69.7681 33.2599 71.5361 32.6179 71.8301 32.4399C72.1241 32.2619 71.0641 30.8399 70.5921 30.6119C70.1201 30.3839 69.5301 30.0119 69.5301 30.0119C69.5301 30.0119 68.8821 29.1859 68.7641 29.0119C68.6461 28.8379 68.5861 28.5399 68.4101 28.3039C68.3449 28.2041 68.2579 28.1204 68.1557 28.0591C68.0535 27.9978 67.9388 27.9605 67.8201 27.9499C67.5241 27.8919 67.1121 29.3659 65.3421 29.6619C63.5721 29.9579 59.2641 30.1339 59.2641 30.1339L59.0281 30.0859Z" fill="#1DB056" stroke="#263238" stroke-width="0.2" stroke-linecap="round" stroke-linejoin="round"/>
<path d="M64.5156 35.6919C64.5156 35.6919 67.9376 33.9799 68.3496 32.6239C68.7616 31.2679 68.7636 29.0239 68.7636 29.0239" stroke="#263238" stroke-width="0.2" stroke-linecap="round" stroke-linejoin="round"/>
<path d="M67.1113 34.2161C67.1113 34.2161 68.5853 33.5681 69.0573 32.6821C69.5293 31.7961 69.5293 30.0281 69.5293 30.0281" stroke="#263238" stroke-width="0.2" stroke-linecap="round" stroke-linejoin="round"/>
<path d="M57.1291 22.7521C57.0651 22.9921 58.4471 29.8441 59.4371 31.5761C60.4271 33.3081 62.4871 34.2961 63.7251 33.7201C65.1571 33.0501 66.7351 31.7361 67.4191 30.2781C67.5451 30.0081 68.2431 27.0901 68.0951 27.0401C68.0951 27.0401 69.0851 27.3701 69.4951 25.5561C69.9051 23.7421 70.2371 22.6701 69.7431 21.6801C69.2491 20.6901 66.4471 18.3821 63.8891 18.8001C61.3311 19.2181 57.5411 21.1861 57.1291 22.7521Z" fill="white" stroke="#263238" stroke-width="0.2" stroke-linecap="round" stroke-linejoin="round"/>
<path d="M63.974 20.5999C63.974 20.5999 60.346 23.3999 57.872 23.6519C55.398 23.9039 55.4 22.7519 55.4 22.7519C55.4 22.7519 52.184 23.6599 52.514 21.1859C52.844 18.7119 57.8 16.7319 57.8 16.7319C57.8 16.7319 56.068 16.2379 56.892 15.3319C57.716 14.4259 60.85 13.4339 62.912 13.6819C64.974 13.9299 65.88 14.4239 65.88 14.4239C65.88 14.4239 65.302 12.9399 66.54 13.4239C67.778 13.9079 68.838 16.3199 68.838 16.3199C68.838 16.3199 70.982 16.4859 71.148 17.0619C71.314 17.6379 69.91 17.7999 69.91 17.7999C69.91 17.7999 71.23 20.2739 70.57 21.6759C69.91 23.0779 68.508 23.4899 68.426 23.7379C68.344 23.9859 68.674 24.8919 68.014 24.5619C67.354 24.2319 67.106 22.8299 67.106 22.8299C67.106 22.8299 66.118 21.8419 66.034 21.4299C65.95 21.0179 65.87 20.5239 65.87 20.5239C65.87 20.5239 65.292 22.2559 63.974 22.5019C62.656 22.7479 63.974 20.5999 63.974 20.5999Z" fill="#263238" stroke="#263238" stroke-width="0.2" stroke-linecap="round" stroke-linejoin="round"/>
<path d="M61.0003 26.5459C61.0003 26.5459 59.3523 30.1739 60.2583 30.2559C61.1643 30.3379 61.9903 29.3479 61.9903 29.3479" fill="white"/>
<path d="M61.0003 26.5459C61.0003 26.5459 59.3523 30.1739 60.2583 30.2559C61.1643 30.3379 61.9903 29.3479 61.9903 29.3479" stroke="#263238" stroke-width="0.2" stroke-linecap="round" stroke-linejoin="round"/>
<path d="M61.0879 30.8339C61.0879 30.8339 62.1599 31.9879 64.1379 30.4199" stroke="#263238" stroke-width="0.2" stroke-linecap="round" stroke-linejoin="round"/>
<path d="M63.248 27.27C63.248 27.27 63.448 28.016 64.942 27.88" stroke="#263238" stroke-width="0.2" stroke-linecap="round" stroke-linejoin="round"/>
<path d="M60.1293 27.134C60.1293 27.134 59.6553 27.744 59.1133 27.744" stroke="#263238" stroke-width="0.2" stroke-linecap="round" stroke-linejoin="round"/>
<path d="M66.4757 25.3999C66.4757 25.3999 62.6537 25.3179 62.2417 25.4839C61.8297 25.6499 61.7477 26.6379 61.9937 27.2979C62.2397 27.9579 62.8197 28.8639 64.3037 28.8639C65.7877 28.8639 66.5297 28.1219 67.0237 26.7199C67.5177 25.3179 66.4757 25.3999 66.4757 25.3999Z" stroke="#263238" stroke-width="0.2" stroke-linecap="round" stroke-linejoin="round"/>
<path d="M57.0445 25.3999C57.0445 25.3999 59.9865 25.3179 60.3045 25.4839C60.6225 25.6499 60.6845 26.6379 60.5045 27.2979C60.3245 27.9579 59.8685 28.8639 58.7265 28.8639C57.5845 28.8639 57.0125 28.1219 56.6325 26.7199C56.2525 25.3179 57.0445 25.3999 57.0445 25.3999Z" stroke="#263238" stroke-width="0.2" stroke-linecap="round" stroke-linejoin="round"/>
<path d="M67.2031 25.8661L68.4591 24.2061" stroke="#263238" stroke-width="0.2" stroke-linecap="round" stroke-linejoin="round"/>
<path d="M62.2412 25.4739H60.2832" stroke="#263238" stroke-width="0.2" stroke-linecap="round" stroke-linejoin="round"/>
<path d="M61.7394 26.27H60.5254" stroke="#263238" stroke-width="0.2" stroke-linecap="round" stroke-linejoin="round"/>
<path d="M56.5996 25.784L57.5316 25.178" stroke="#263238" stroke-width="0.2" stroke-linecap="round" stroke-linejoin="round"/>
<path d="M64.1617 26.872C64.1617 27.18 64.0157 27.432 63.8357 27.432C63.6557 27.432 63.5117 27.18 63.5117 26.872C63.5117 26.564 63.6577 26.312 63.8357 26.312C64.0137 26.312 64.1617 26.562 64.1617 26.872Z" fill="#263238"/>
<path d="M59.8531 26.6359C59.8531 26.9459 59.7091 27.1959 59.5291 27.1959C59.3491 27.1959 59.2051 26.9459 59.2051 26.6359C59.2051 26.3259 59.3511 26.0759 59.5291 26.0759C59.7071 26.0759 59.8531 26.3259 59.8531 26.6359Z" fill="#263238"/>
<path d="M58.3203 24.7179C58.3203 24.7179 59.5003 24.2459 60.0903 24.5999" stroke="#263238" stroke-width="0.4" stroke-linecap="round" stroke-linejoin="round"/>
<path d="M62.8008 24.6599C63.6079 24.4255 64.4742 24.5099 65.2208 24.8959" stroke="#263238" stroke-width="0.4" stroke-linecap="round" stroke-linejoin="round"/>
<path d="M43.9493 48.21C43.5087 47.9365 43.0151 47.7595 42.5011 47.6906C41.9872 47.6216 41.4644 47.6623 40.9673 47.81C39.3413 48.284 38.5293 49.708 38.5293 50.182H45.3713C45.2868 49.7716 45.1164 49.3837 44.8713 49.0438C44.6262 48.7039 44.312 48.4198 43.9493 48.21Z" fill="#808080" stroke="#263238" stroke-width="0.2" stroke-linecap="round" stroke-linejoin="round"/>
<path d="M39.749 46.584C39.749 46.584 38.8689 47.872 38.8689 48.346C38.8689 48.82 38.3949 49.294 39.0689 49.498C39.7429 49.702 40.1529 47.33 40.1529 47.06C40.1529 46.79 39.749 46.584 39.749 46.584Z" fill="white" stroke="#263238" stroke-width="0.2" stroke-linecap="round" stroke-linejoin="round"/>
<path d="M40.9671 46.516C40.9671 46.516 40.0191 46.316 39.7471 46.584C39.4751 46.852 39.0031 49.228 39.0711 49.498C39.1391 49.768 39.8151 49.836 40.0191 49.566C40.2231 49.296 40.9671 46.516 40.9671 46.516Z" fill="white" stroke="#263238" stroke-width="0.2" stroke-linecap="round" stroke-linejoin="round"/>
<path d="M45.034 47.5999C45.034 47.5999 42.188 46.5819 41.578 46.1759C40.968 45.7699 40.63 46.5759 40.426 47.0579C40.222 47.5399 39.748 49.2259 39.748 49.6999C39.748 50.1739 40.494 50.3759 40.63 49.8339C40.766 49.2919 41.85 47.5319 41.85 47.5319L43.272 48.0739C43.272 48.0739 43.408 48.2739 42.798 48.6839C42.188 49.0939 41.308 49.9699 41.578 50.1059C41.848 50.2419 42.662 50.1739 42.934 49.9059C43.206 49.6379 44.626 49.2959 44.626 49.2959C44.626 49.2959 45.914 50.1099 46.186 50.1779C46.458 50.2459 48.15 49.9059 48.15 49.9059C48.15 49.9059 46.252 48.2799 45.982 48.0779C45.6813 47.89 45.3639 47.73 45.034 47.5999Z" fill="white" stroke="#263238" stroke-width="0.2" stroke-linecap="round" stroke-linejoin="round"/>
<path d="M70.6993 46.5479H69.2773C68.6673 46.5479 67.4473 46.1479 67.3793 46.8179C67.3113 47.4879 68.7353 47.9019 69.4113 47.9019C70.0873 47.9019 70.4953 47.6319 71.3093 48.0379C72.1233 48.4439 72.5973 48.7159 72.5973 48.7159L71.6473 47.2239L70.6993 46.5479Z" fill="white" stroke="#263238" stroke-width="0.2" stroke-linecap="round" stroke-linejoin="round"/>
<path d="M76.3237 50.07C76.3237 50.07 75.0357 47.292 74.4257 46.412C73.8157 45.532 70.2257 44.854 69.8257 44.854C69.4257 44.854 68.4017 47.09 68.5377 47.632C68.6737 48.174 68.9377 47.564 69.1377 47.232C69.3377 46.9 70.0857 45.946 70.0857 45.946C70.0857 45.946 71.2377 47.842 71.7117 48.858C72.1857 49.874 73.1357 50.01 73.6777 50.146C74.2197 50.282 76.3237 50.07 76.3237 50.07Z" fill="white" stroke="#263238" stroke-width="0.2" stroke-linecap="round" stroke-linejoin="round"/>
<path d="M73.0003 46C73.0003 46 71.7123 44.306 71.0343 44.576C70.3563 44.846 69.2743 48.1 69.1383 48.506C69.0023 48.912 69.8163 48.642 69.9503 48.306C70.0843 47.97 71.3063 46.206 71.3063 46.206L72.3903 46.884" fill="white"/>
<path d="M73.0003 46C73.0003 46 71.7123 44.306 71.0343 44.576C70.3563 44.846 69.2743 48.1 69.1383 48.506C69.0023 48.912 69.8163 48.642 69.9503 48.306C70.0843 47.97 71.3063 46.206 71.3063 46.206L72.3903 46.884" stroke="#263238" stroke-width="0.2" stroke-linecap="round" stroke-linejoin="round"/>
<path d="M73.9527 46C73.9527 46 72.5987 44.848 72.1227 44.982C71.6467 45.116 69.9547 48.438 70.2267 48.582C70.4987 48.726 71.0387 48.446 71.3107 48.04C71.5827 47.634 72.1227 46.684 72.1227 46.684L73.1407 47.43" fill="white"/>
<path d="M73.9527 46C73.9527 46 72.5987 44.848 72.1227 44.982C71.6467 45.116 69.9547 48.438 70.2267 48.582C70.4987 48.726 71.0387 48.446 71.3107 48.04C71.5827 47.634 72.1227 46.684 72.1227 46.684L73.1407 47.43" stroke="#263238" stroke-width="0.2" stroke-linecap="round" stroke-linejoin="round"/>
<path d="M74.6133 46.932C74.6133 46.932 73.9513 45.598 73.4773 45.802C73.0033 46.006 71.3773 48.512 71.8513 48.512C72.3253 48.512 73.7493 47.022 73.7493 47.022C73.7493 47.022 73.6133 48.174 73.7493 48.782" fill="white"/>
<path d="M74.6133 46.932C74.6133 46.932 73.9513 45.598 73.4773 45.802C73.0033 46.006 71.3773 48.512 71.8513 48.512C72.3253 48.512 73.7493 47.022 73.7493 47.022C73.7493 47.022 73.6133 48.174 73.7493 48.782" stroke="#263238" stroke-width="0.2" stroke-linecap="round" stroke-linejoin="round"/>
<path d="M54.9368 50.1841H72.7148V49.6341H54.9368V50.1841Z" fill="#808080" stroke="#263238" stroke-width="0.2" stroke-linecap="round" stroke-linejoin="round"/>
<path d="M41.959 38.0701H59.815L63.433 50.1841H45.577L41.959 38.0701Z" fill="#808080" stroke="#263238" stroke-width="0.2" stroke-linecap="round" stroke-linejoin="round"/>
<path d="M34.4473 50.1841H97.5333" stroke="#263238" stroke-width="0.2" stroke-linecap="round" stroke-linejoin="round"/>
<path d="M82.399 43.6821C82.399 43.6821 82.693 46.8081 82.517 47.8121C82.341 48.8161 81.867 48.9321 81.749 49.4121C81.631 49.8921 82.517 49.8261 83.047 49.7661C83.577 49.7061 84.167 47.1661 84.817 44.0441" fill="white"/>
<path d="M82.399 43.6821C82.399 43.6821 82.693 46.8081 82.517 47.8121C82.341 48.8161 81.867 48.9321 81.749 49.4121C81.631 49.8921 82.517 49.8261 83.047 49.7661C83.577 49.7061 84.167 47.1661 84.817 44.0441" stroke="#263238" stroke-width="0.2" stroke-linecap="round" stroke-linejoin="round"/>
<path d="M87.1064 49.374C87.1064 49.374 85.7624 49.532 85.7224 49.888C85.6824 50.244 85.9584 50.52 86.9864 50.56C88.0144 50.6 90.6624 50.482 91.0984 50.244C91.5344 50.006 90.1104 49.644 89.2404 49.532C88.3704 49.42 87.1064 49.374 87.1064 49.374Z" fill="white" stroke="#263238" stroke-width="0.2" stroke-linecap="round" stroke-linejoin="round"/>
<path d="M81.4472 36.9561C81.4472 36.9561 80.0312 38.0181 79.9132 40.4381C79.7952 42.8581 81.7992 44.6841 82.7992 45.0981C83.7992 45.5121 85.0412 45.9241 85.3992 46.2181C85.7572 46.5121 85.8432 48.2181 86.3432 48.9921C87.1052 50.1661 89.1752 50.6441 91.7712 50.3481C94.3672 50.0521 94.4172 47.2001 94.6612 45.2741C94.9492 43.0001 93.5992 39.2001 91.9472 38.2001C90.2952 37.2001 87.6412 37.4921 86.8152 37.3141C86.2615 37.1675 85.7538 36.8833 85.3392 36.4881C84.7211 36.1563 84.0157 36.0232 83.3192 36.1069C82.6227 36.1907 81.969 36.4872 81.4472 36.9561Z" fill="white" stroke="#263238" stroke-width="0.2" stroke-linecap="round" stroke-linejoin="round"/>
<path d="M85.8686 36.3999C86.0866 37.0999 85.2026 37.9999 83.8966 38.3999C82.5906 38.7999 81.3546 38.5679 81.1366 37.8679C80.9186 37.1679 81.8006 36.2679 83.1086 35.8679C84.4166 35.4679 85.6506 35.6959 85.8686 36.3999Z" fill="#1DB056" stroke="#263238" stroke-width="0.2" stroke-linecap="round" stroke-linejoin="round"/>
<path d="M83.3783 39.144C83.4196 39.277 83.4205 39.4193 83.3809 39.5528C83.3413 39.6864 83.263 39.8052 83.1558 39.8942C83.0487 39.9832 82.9176 40.0384 82.7791 40.0529C82.6405 40.0673 82.5008 40.0404 82.3776 39.9754C82.2544 39.9104 82.1532 39.8104 82.0869 39.6879C82.0206 39.5654 81.9921 39.426 82.005 39.2874C82.0179 39.1487 82.0717 39.0169 82.1595 38.9088C82.2473 38.8007 82.3652 38.7211 82.4983 38.68C82.6765 38.6255 82.8691 38.6437 83.0339 38.7307C83.1988 38.8176 83.3226 38.9662 83.3783 39.144Z" fill="#263238" stroke="#263238" stroke-width="0.2" stroke-linecap="round" stroke-linejoin="round"/>
<path d="M84.043 43.3281C84.043 43.3281 84.043 46.2781 83.925 47.5161C83.807 48.7541 83.571 49.0501 83.217 49.2861C82.863 49.5221 82.803 49.9361 83.335 50.1121C83.867 50.2881 84.573 50.0541 84.749 49.8181C84.925 49.5821 86.107 46.4541 86.933 43.8001" fill="white"/>
<path d="M84.043 43.3281C84.043 43.3281 84.043 46.2781 83.925 47.5161C83.807 48.7541 83.571 49.0501 83.217 49.2861C82.863 49.5221 82.803 49.9361 83.335 50.1121C83.867 50.2881 84.573 50.0541 84.749 49.8181C84.925 49.5821 86.107 46.4541 86.933 43.8001" stroke="#263238" stroke-width="0.2" stroke-linecap="round" stroke-linejoin="round"/>
<path d="M94.3774 47.832C94.3774 47.832 95.9594 48.814 95.4874 50.172C95.0154 51.53 89.8234 51.824 85.9294 51.824C82.0354 51.824 77.9654 51.528 78.3294 50.224C78.6934 48.92 81.5154 49.812 84.2874 49.988C87.0594 50.164 93.0054 50.214 93.5514 49.458C93.8933 48.9525 94.1708 48.4063 94.3774 47.832Z" fill="white" stroke="#263238" stroke-width="0.2" stroke-linecap="round" stroke-linejoin="round"/>
<path d="M76.5723 31.8459C76.8231 32.3146 77.1128 32.7615 77.4383 33.1819C77.6248 33.4246 77.845 33.6395 78.0923 33.8199C78.0923 33.8199 78.8623 32.5659 78.5943 32.0359C78.3263 31.5059 76.5723 31.8459 76.5723 31.8459Z" fill="white" stroke="#263238" stroke-width="0.2" stroke-linecap="round" stroke-linejoin="round"/>
<path d="M85.1075 28.762C85.2778 29.1965 85.3646 29.6593 85.3635 30.126C85.3635 30.926 85.1935 31.246 85.1935 31.246L83.6875 30.57C83.6875 30.57 84.6435 28.968 85.1075 28.762Z" fill="white" stroke="#263238" stroke-width="0.2" stroke-linecap="round" stroke-linejoin="round"/>
<path d="M78.3291 32.476C78.3291 32.476 77.3051 34.51 78.0351 35.81C78.7651 37.11 80.4351 37.562 81.1611 37.65C81.8871 37.738 83.1011 38.038 84.1891 37.036C85.2771 36.034 85.4251 35.968 85.4251 35.968C85.4251 35.968 87.0011 34.332 86.7231 32.568C86.4451 30.804 84.1111 30.4 84.1111 30.4L85.1111 28.762C85.1111 28.762 83.6891 29.25 83.2351 29.562C82.952 29.7505 82.6589 29.9234 82.3571 30.08C81.7381 30.0724 81.1229 30.1767 80.5411 30.388C79.9023 30.6831 79.2941 31.0401 78.7251 31.454C78.7251 31.454 76.4531 31.61 76.5751 31.854C76.6971 32.098 78.3291 32.476 78.3291 32.476Z" fill="white" stroke="#263238" stroke-width="0.2" stroke-linecap="round" stroke-linejoin="round"/>
<path d="M81.3492 35.576C81.6438 35.6031 81.9404 35.5499 82.2072 35.422C82.6292 35.208 82.4572 34.968 82.1952 34.948C81.9102 34.9575 81.6334 35.0454 81.3952 35.202C81.1992 35.324 81.1472 35.424 81.3492 35.576Z" fill="white" stroke="#263238" stroke-width="0.2" stroke-linecap="round" stroke-linejoin="round"/>
<path d="M81.4147 34.518C81.4147 34.518 80.6147 34.742 80.5487 35.206C80.4827 35.67 81.0067 35.982 81.3287 35.72C81.5173 35.5698 81.6537 35.3641 81.7187 35.132C81.7187 35.132 82.5367 35.5899 82.8907 35.2859C83.2447 34.9819 83.3527 34.552 83.0387 34.332C82.7247 34.112 81.4147 34.518 81.4147 34.518Z" fill="white" stroke="#263238" stroke-width="0.2" stroke-linecap="round" stroke-linejoin="round"/>
<path d="M82.0207 34.364C82.0207 34.364 81.3547 34.498 81.2847 34.608C81.2147 34.718 81.4847 35.164 81.7407 35.062C81.8337 35.0135 81.9146 34.9446 81.9773 34.8605C82.04 34.7763 82.0829 34.6791 82.1027 34.576C82.1121 34.5365 82.1094 34.4951 82.0947 34.4572C82.0801 34.4194 82.0542 34.3869 82.0207 34.364Z" fill="#263238" stroke="#263238" stroke-width="0.2" stroke-linecap="round" stroke-linejoin="round"/>
<path d="M80.2793 33.7881C80.4313 34.0901 80.4273 34.4001 80.2673 34.4781C80.1073 34.5561 79.8673 34.3781 79.7073 34.0781C79.5473 33.7781 79.5593 33.4661 79.7073 33.3881C79.8553 33.3101 80.1273 33.4861 80.2793 33.7881Z" fill="#263238"/>
<path d="M82.6985 33.0799C82.8345 33.3899 82.8125 33.6979 82.6505 33.7699C82.4885 33.8419 82.2505 33.6459 82.1105 33.3359C81.9705 33.0259 81.9965 32.7179 82.1585 32.6479C82.3205 32.5779 82.5625 32.7699 82.6985 33.0799Z" fill="#263238"/>
<path d="M64.931 94.1779C64.4314 94.1526 63.9406 94.036 63.483 93.8339C63.361 93.7809 63.2651 93.6816 63.2163 93.5578C63.1675 93.434 63.1699 93.2959 63.223 93.1739C63.276 93.0519 63.3754 92.956 63.4991 92.9073C63.6229 92.8585 63.761 92.8609 63.883 92.9139C64.345 93.1139 64.937 93.2299 65.097 93.1619C65.387 92.8359 65.837 90.8559 65.257 89.9119C65.2263 89.8454 65.1801 89.7871 65.1224 89.7419C65.0647 89.6966 64.997 89.6658 64.925 89.6519C64.595 89.6079 64.107 89.9459 63.935 90.1079C63.8379 90.1984 63.7089 90.2466 63.5763 90.2419C63.4437 90.2372 63.3184 90.18 63.228 90.0829C63.1375 89.9859 63.0894 89.8569 63.0941 89.7243C63.0988 89.5917 63.1559 89.4664 63.253 89.3759C63.345 89.2899 64.175 88.5399 65.053 88.6599C65.272 88.6929 65.4806 88.7757 65.6626 88.9019C65.8447 89.0281 65.9953 89.1944 66.103 89.3879C66.957 90.7759 66.371 93.4219 65.717 93.9459C65.4886 94.1097 65.2117 94.1915 64.931 94.1779Z" fill="#263238" stroke="#263238" stroke-width="0.2" stroke-linecap="round" stroke-linejoin="round"/>
<path d="M64.0455 88.25H58.5195V95.584H64.0455V88.25Z" fill="#263238" stroke="#263238" stroke-width="0.2" stroke-linecap="round" stroke-linejoin="round"/>
<path d="M59.0215 87.8479C59.0215 87.8479 59.0215 87.2379 60.1395 86.6279C61.2575 86.0179 61.8715 85.0999 61.2595 83.3699C60.6475 81.6399 60.7515 80.4179 61.9735 79.3999" stroke="#263238" stroke-width="0.2" stroke-linecap="round" stroke-linejoin="round"/>
<path d="M59.2754 81.3379C59.3314 80.5939 59.6654 79.9659 60.3434 79.3999" stroke="#263238" stroke-width="0.2" stroke-linecap="round" stroke-linejoin="round"/>
<path d="M59.6313 83.37C59.5205 83.0617 59.4303 82.7463 59.3613 82.426" stroke="#263238" stroke-width="0.2" stroke-linecap="round" stroke-linejoin="round"/>
<path d="M63.5686 83.9661C63.525 83.7626 63.4683 83.5622 63.3986 83.3661C63.3666 83.2721 63.3346 83.1801 63.3066 83.0901" stroke="#263238" stroke-width="0.2" stroke-linecap="round" stroke-linejoin="round"/>
<path d="M61.1582 87.8479C61.1582 87.8479 61.1582 87.2379 62.2782 86.6279C63.0142 86.2279 63.5282 85.6939 63.6242 84.8879" stroke="#263238" stroke-width="0.2" stroke-linecap="round" stroke-linejoin="round"/>
<path d="M73.4931 86.8C73.4931 86.8 72.8731 86.012 72.1991 85.676C71.5251 85.34 70.1191 85.056 70.1191 85.056C70.1191 85.056 71.3551 84.776 72.3191 85C73.2831 85.224 73.9511 86.182 73.9511 86.182C73.9511 86.182 73.6691 85.782 73.2751 84.606C72.8811 83.43 72.8751 80.896 72.8751 80.896C73.4744 81.5967 73.9481 82.3958 74.2751 83.258C74.5474 84.0418 74.7357 84.8524 74.8371 85.676C74.8371 85.676 74.7251 83.708 75.0631 82.584C75.4011 81.46 76.3551 80.054 76.3551 80.054C76.3551 80.054 76.4111 82.526 76.0191 83.876C75.6271 85.226 75.4551 85.844 75.4551 85.844C75.7018 85.1429 76.1062 84.5079 76.6371 83.988C77.4791 83.202 79.5031 82.526 79.5031 82.526C79.5031 82.526 78.5471 84.27 77.9291 84.832C77.3111 85.394 76.6931 86.012 76.6931 86.012C77.2464 85.6612 77.8924 85.4849 78.5471 85.506C79.7291 85.506 81.1331 86.294 81.1331 86.294C81.1331 86.294 77.0311 86.238 76.2431 86.912L73.4931 86.8Z" fill="#1DB056" stroke="#263238" stroke-width="0.2" stroke-miterlimit="10"/>
<path d="M74.2565 86.4961L73.5645 86.0181" stroke="#263238" stroke-width="0.2" stroke-linecap="round" stroke-linejoin="round"/>
<path d="M75.001 86.87L74.043 84.312" stroke="#263238" stroke-width="0.2" stroke-linecap="round" stroke-linejoin="round"/>
<path d="M74.8965 87.19L75.5365 83.46" stroke="#263238" stroke-width="0.2" stroke-linecap="round" stroke-linejoin="round"/>
<path d="M75.002 86.8701L76.814 84.6321" stroke="#263238" stroke-width="0.2" stroke-linecap="round" stroke-linejoin="round"/>
<path d="M74.6484 86.6401L77.2944 85.9641" stroke="#263238" stroke-width="0.2" stroke-linecap="round" stroke-linejoin="round"/>
<path d="M78.2105 95.584H72.6005L72.3465 93.546C72.1619 92.0582 72.1531 90.5538 72.3205 89.064L72.6005 86.574H78.2205L78.4965 89.01C78.6668 90.4982 78.6601 92.0013 78.4765 93.488L78.2105 95.584Z" fill="#263238"/>
<path d="M78.5818 91.756L77.7398 86.64L76.6138 95.466L74.6478 86.64L73.4658 95.58L72.5898 86.574" fill="#263238"/>
<path d="M78.5818 91.756L77.7398 86.64L76.6138 95.466L74.6478 86.64L73.4658 95.58L72.5898 86.574" stroke="white" stroke-width="0.2" stroke-linecap="round" stroke-linejoin="round"/>
<path d="M78.2105 95.584H72.6005L72.3465 93.546C72.1619 92.0582 72.1531 90.5538 72.3205 89.064L72.6005 86.574H78.2205L78.4965 89.01C78.6668 90.4982 78.6601 92.0013 78.4765 93.488L78.2105 95.584Z" stroke="#263238" stroke-width="0.2" stroke-miterlimit="10"/>
<path d="M26.4914 60.9C30.5231 60.9 33.7914 57.6317 33.7914 53.6C33.7914 49.5684 30.5231 46.3 26.4914 46.3C22.4597 46.3 19.1914 49.5684 19.1914 53.6C19.1914 57.6317 22.4597 60.9 26.4914 60.9Z" stroke="#B2B2B2" stroke-width="0.2" stroke-miterlimit="10"/>
<path d="M26.4923 59.44C29.7177 59.44 32.3323 56.8254 32.3323 53.6C32.3323 50.3747 29.7177 47.76 26.4923 47.76C23.267 47.76 20.6523 50.3747 20.6523 53.6C20.6523 56.8254 23.267 59.44 26.4923 59.44Z" stroke="#B2B2B2" stroke-width="0.2" stroke-miterlimit="10"/>
<path d="M25.582 53.5999C25.5816 53.78 25.6347 53.9561 25.7344 54.106C25.8342 54.2559 25.9762 54.3729 26.1424 54.4421C26.3086 54.5112 26.4917 54.5295 26.6683 54.4947C26.845 54.4598 27.0073 54.3733 27.1348 54.2461C27.2623 54.1189 27.3491 53.9567 27.3844 53.7802C27.4197 53.6036 27.4018 53.4205 27.333 53.2541C27.2641 53.0877 27.1475 52.9455 26.9978 52.8454C26.8481 52.7453 26.6721 52.6919 26.492 52.6919C26.251 52.6919 26.0199 52.7875 25.8493 52.9577C25.6787 53.1279 25.5826 53.3589 25.582 53.5999Z" stroke="#B2B2B2" stroke-width="0.2" stroke-miterlimit="10"/>
<path d="M26.4922 54.5081V57.9501" stroke="#B2B2B2" stroke-width="0.2" stroke-miterlimit="10"/>
<path d="M27.4004 53.6001H29.5384" stroke="#B2B2B2" stroke-width="0.2" stroke-miterlimit="10"/>
<path d="M87.4003 95.584H2.40625" stroke="#263238" stroke-width="0.2" stroke-linecap="round" stroke-linejoin="round"/>
<path d="M41.53 69.8C41.53 69.8 40.996 73.46 41.53 74.148C42.064 74.836 43.284 75.3681 45.038 75.9021C46.792 76.4361 47.936 75.29 49.612 77.198C51.288 79.106 52.664 83.984 53.578 85.51C54.492 87.036 55.562 89.4 55.8 91.162C56.038 92.924 55.266 93.906 53.74 94.136C52.214 94.366 49.54 90.628 49.242 90.094C48.944 89.56 47.478 87.8 47.478 87.8C47.478 87.8 46.638 93.9781 46.638 94.282C46.638 94.5861 46.714 95.5781 46.714 95.5781H24.752C24.752 95.5781 26.43 86.428 26.886 83.224C27.342 80.02 27.116 77.886 28.946 76.742C30.776 75.598 32.454 75.904 33.674 75.522C34.894 75.14 35.656 74.836 35.734 74.15C35.812 73.464 35.81 70.26 35.81 70.26L41.53 69.8Z" fill="#1DB056" stroke="#263238" stroke-width="0.2" stroke-linecap="round" stroke-linejoin="round"/>
<path d="M25.544 91.9761L15.5 94.6201L16.294 95.5881H27.748" fill="#1DB056"/>
<path d="M25.544 91.9761L15.5 94.6201L16.294 95.5881H27.748" stroke="#263238" stroke-width="0.2" stroke-linecap="round" stroke-linejoin="round"/>
<path d="M14.2208 93.6101C13.7805 93.3367 13.2873 93.1597 12.7737 93.0907C12.26 93.0218 11.7376 93.0624 11.2408 93.2101C9.61478 93.6841 8.80078 95.1081 8.80078 95.5821H15.6448C15.5602 95.1715 15.3895 94.7834 15.1441 94.4435C14.8986 94.1036 14.584 93.8196 14.2208 93.6101Z" fill="#808080" stroke="#263238" stroke-width="0.2" stroke-linecap="round" stroke-linejoin="round"/>
<path d="M10.0205 91.9839C10.0205 91.9839 9.13848 93.2719 9.13848 93.7459C9.13848 94.2199 8.66448 94.6939 9.33848 94.8979C10.0125 95.1019 10.4225 92.7299 10.4225 92.4599C10.4225 92.1899 10.0205 91.9839 10.0205 91.9839Z" fill="white" stroke="#263238" stroke-width="0.2" stroke-linecap="round" stroke-linejoin="round"/>
<path d="M11.2405 91.9181C11.2405 91.9181 10.2905 91.7181 10.0205 91.9841C9.75051 92.2501 9.27451 94.6281 9.34251 94.8981C9.41051 95.1681 10.0885 95.2361 10.2905 94.9661C10.4925 94.6961 11.2405 91.9181 11.2405 91.9181Z" fill="white" stroke="#263238" stroke-width="0.2" stroke-linecap="round" stroke-linejoin="round"/>
<path d="M18.1515 93.96L16.5515 93.778C16.4611 93.6696 16.3621 93.5686 16.2555 93.476C15.9536 93.2882 15.6349 93.1289 15.3035 93C15.3035 93 12.4575 91.982 11.8475 91.576C11.2375 91.17 10.8995 91.976 10.6975 92.458C10.4955 92.94 10.0195 94.626 10.0195 95.1C10.0195 95.574 10.7635 95.776 10.8995 95.234C11.0355 94.692 12.1195 92.932 12.1195 92.932L13.5415 93.474C13.5415 93.474 13.6775 93.674 13.0675 94.084C12.4575 94.494 11.5775 95.37 11.8475 95.506C12.1175 95.642 12.9315 95.574 13.2035 95.306C13.4755 95.038 14.8975 94.706 14.8975 94.706C14.8975 94.706 16.1855 95.52 16.4555 95.588C16.6303 95.6136 16.8069 95.6243 16.9835 95.62H18.6355C18.7063 95.3251 18.6989 95.0169 18.614 94.7257C18.5291 94.4346 18.3697 94.1707 18.1515 93.96Z" fill="white" stroke="#263238" stroke-width="0.2" stroke-linecap="round" stroke-linejoin="round"/>
<path d="M13.2422 93.9601C13.2422 93.9601 13.8422 93.2761 14.3282 93.1941" stroke="#263238" stroke-width="0.2" stroke-linecap="round" stroke-linejoin="round"/>
<path d="M52.5997 88.4219C53.3239 88.657 54.0338 88.9341 54.7258 89.2519C55.7118 89.7179 56.0757 90.8519 55.9258 92.2619C55.7758 93.6719 54.7838 94.7539 53.3258 94.3379C51.8678 93.9219 51.0938 92.7379 51.0418 91.7939C50.9898 90.8499 50.5677 88.7319 52.5997 88.4219Z" fill="white" stroke="#263238" stroke-width="0.2" stroke-linecap="round" stroke-linejoin="round"/>
<path d="M37.1814 80.3321C33.7494 80.2101 31.5234 78.0961 30.1934 76.1601C31.5314 75.7121 32.7374 75.8201 33.6734 75.5281C34.8934 75.1461 35.6554 74.8421 35.7334 74.1561C35.8114 73.4701 35.8094 70.2661 35.8094 70.2661L41.5294 69.8081C41.5294 69.8081 40.9954 73.4681 41.5294 74.1561C42.0634 74.8441 43.2834 75.3761 45.0374 75.9101C45.8054 76.1421 46.4554 76.0541 47.0874 76.0421C46.0574 77.1661 42.5214 80.5221 37.1814 80.3321Z" fill="white" stroke="#263238" stroke-width="0.2" stroke-linecap="round" stroke-linejoin="round"/>
<path d="M35.8008 72.5581C36.2312 72.9742 36.7076 73.3399 37.2208 73.6481C38.1368 74.1641 39.7048 73.7061 40.1628 73.1341C40.3868 72.8541 40.8488 72.3021 41.3428 71.6381C41.4128 70.6721 41.5428 69.8081 41.5428 69.8081L35.8228 70.2661C35.8228 70.2661 35.8108 71.4681 35.8008 72.5581Z" fill="#263238" stroke="#263238" stroke-width="0.2" stroke-linecap="round" stroke-linejoin="round"/>
<path d="M53.2671 81.726C53.2671 81.726 50.1531 85.826 49.8411 87.54C49.5291 89.254 48.5431 93.4 48.5431 93.4C48.5431 93.4 45.5331 94.698 43.6131 94.75C41.6931 94.802 38.3711 94.49 38.3711 94.49C38.3711 94.49 40.4991 89 41.3291 86.242C42.1591 83.484 42.3671 81.934 42.3671 81.934C42.3671 81.934 47.0911 82.556 49.7891 81.934L53.8371 81L53.2671 81.726Z" fill="white" stroke="#263238" stroke-width="0.2" stroke-linecap="round" stroke-linejoin="round"/>
<path d="M53.1189 90.3221C53.1189 90.3221 52.7389 85.5221 52.2809 85.3661C51.8229 85.2101 49.0809 84.8321 48.3149 84.9841C47.5489 85.1361 47.3149 85.4421 47.9349 85.5941C48.5549 85.7461 49.6109 85.9001 50.0689 85.9761C50.586 86.099 51.0956 86.252 51.5949 86.4341C51.5949 86.4341 49.9169 86.6621 49.2309 86.6621C48.5449 86.6621 46.9429 87.3481 46.8669 87.6621C46.8219 87.8432 46.8491 88.0347 46.9429 88.1961C46.9026 88.3534 46.9068 88.5189 46.9549 88.6741C47.0309 88.9801 48.8489 88.8281 49.3069 88.9041C49.7649 88.9801 50.6789 89.2001 50.6789 89.2001C50.6789 89.2001 48.0109 89.0481 48.0109 89.5821C48.0109 90.1161 49.1529 90.0381 49.6109 90.0381C50.1655 90.0992 50.693 90.3101 51.1369 90.6481C51.3649 90.8781 51.2889 92.0741 51.9749 92.3041C52.269 92.4195 52.577 92.4962 52.8909 92.5321" fill="white"/>
<path d="M53.1189 90.3221C53.1189 90.3221 52.7389 85.5221 52.2809 85.3661C51.8229 85.2101 49.0809 84.8321 48.3149 84.9841C47.5489 85.1361 47.3149 85.4421 47.9349 85.5941C48.5549 85.7461 49.6109 85.9001 50.0689 85.9761C50.586 86.099 51.0956 86.252 51.5949 86.4341C51.5949 86.4341 49.9169 86.6621 49.2309 86.6621C48.5449 86.6621 46.9429 87.3481 46.8669 87.6621C46.8219 87.8432 46.8491 88.0347 46.9429 88.1961C46.9026 88.3534 46.9068 88.5189 46.9549 88.6741C47.0309 88.9801 48.8489 88.8281 49.3069 88.9041C49.7649 88.9801 50.6789 89.2001 50.6789 89.2001C50.6789 89.2001 48.0109 89.0481 48.0109 89.5821C48.0109 90.1161 49.1529 90.0381 49.6109 90.0381C50.1655 90.0992 50.693 90.3101 51.1369 90.6481C51.3649 90.8781 51.2889 92.0741 51.9749 92.3041C52.269 92.4195 52.577 92.4962 52.8909 92.5321" stroke="#263238" stroke-width="0.2" stroke-linecap="round" stroke-linejoin="round"/>
<path d="M46.9434 88.188C46.9434 88.188 49.9934 87.5 51.5194 88.264" stroke="#263238" stroke-width="0.2" stroke-linecap="round" stroke-linejoin="round"/>
<path d="M30.3997 84.0701C30.3997 84.0701 29.1797 88.3401 29.4097 89.8701C29.6397 91.4001 30.3237 93.1481 30.3997 93.3781C30.4757 93.6081 30.1317 95.4161 30.1317 95.4161" stroke="#263238" stroke-width="0.2" stroke-linecap="round" stroke-linejoin="round"/>
<path d="M27.8862 60.4279C28.5722 59.7419 27.8862 59.3599 27.9622 58.5979C28.0382 57.8359 28.8002 57.4539 29.1822 57.3019C29.5642 57.1499 29.4102 56.7679 29.4882 55.9279C29.5662 55.0879 30.4782 54.7839 31.0882 54.5559C31.6982 54.3279 31.3182 53.9559 31.6222 53.3359C31.9262 52.7159 33.6062 52.8779 33.6062 52.8779C33.6062 52.8779 33.9862 52.1919 34.4442 52.1919C34.9022 52.1919 35.2062 52.8019 35.8162 52.2679C36.4262 51.7339 36.9602 51.5059 37.8002 51.8099C38.0715 51.9179 38.3502 52.0061 38.6342 52.0739C38.919 52.0064 39.1984 51.9182 39.4702 51.8099C40.3082 51.5059 40.8422 51.7339 41.4522 52.2679C42.0622 52.8019 42.3682 52.1919 42.8262 52.1919C43.2842 52.1919 43.6642 52.8779 43.6642 52.8779C43.6642 52.8779 45.3422 52.7259 45.6482 53.3359C45.9542 53.9459 45.5702 54.3259 46.1802 54.5559C46.7902 54.7859 47.7062 55.0899 47.7802 55.9279C47.8542 56.7659 47.7042 57.1479 48.0862 57.3019C48.4682 57.4559 49.2302 57.8339 49.3062 58.5979C49.3822 59.3619 48.7062 59.7419 49.3822 60.4279C50.0582 61.1139 50.7542 61.6479 50.1442 62.1059C49.5342 62.5639 48.9242 62.7159 49.0002 63.4019C49.0762 64.0879 49.8402 64.9279 49.2302 65.3079C48.6202 65.6879 48.0102 65.6899 48.0102 66.3759C48.0102 67.0619 48.2382 68.0539 47.5522 68.2059C46.8662 68.3579 45.8742 68.2059 45.8742 68.6639C45.8742 69.1219 45.7982 69.9599 44.7302 69.8079C43.6622 69.6559 43.2822 69.3499 43.0522 69.9599C42.8222 70.5699 42.2902 70.9599 41.6802 70.8759C41.0702 70.7919 40.2302 70.7239 39.6962 71.1799C39.433 71.3848 39.1193 71.5148 38.7882 71.5559V71.5819C38.7362 71.5819 38.6842 71.5819 38.6322 71.5819C38.5802 71.5819 38.5282 71.5819 38.4762 71.5819V71.5559C38.1454 71.514 37.8319 71.3841 37.5682 71.1799C37.0342 70.7239 36.1962 70.7999 35.5862 70.8759C34.9762 70.9519 34.4422 70.5699 34.2142 69.9599C33.9862 69.3499 33.6042 69.6559 32.5362 69.8079C31.4682 69.9599 31.3922 69.1219 31.3922 68.6639C31.3922 68.2059 30.3922 68.3599 29.7142 68.2059C29.0362 68.0519 29.2562 67.0619 29.2562 66.3759C29.2562 65.6899 28.6562 65.6899 28.0362 65.3079C27.4162 64.9259 28.1882 64.0879 28.2642 63.4019C28.3402 62.7159 27.7302 62.5639 27.1202 62.1059C26.5102 61.6479 27.2002 61.1139 27.8862 60.4279Z" fill="#263238" stroke="#263238" stroke-width="0.2" stroke-linecap="round" stroke-linejoin="round"/>
<path d="M33.9996 64.6419C33.9996 64.6419 33.1316 63.3399 32.6096 63.9479C32.0876 64.5559 32.2636 66.1179 32.9576 66.8999C33.6516 67.6819 34.4316 67.4199 34.4316 67.4199" fill="white"/>
<path d="M33.9996 64.6419C33.9996 64.6419 33.1316 63.3399 32.6096 63.9479C32.0876 64.5559 32.2636 66.1179 32.9576 66.8999C33.6516 67.6819 34.4316 67.4199 34.4316 67.4199" stroke="#263238" stroke-width="0.2" stroke-linecap="round" stroke-linejoin="round"/>
<path d="M43.2814 64.5759C43.2814 64.5759 44.2954 63.3759 44.7414 64.0479C45.1874 64.7199 44.8314 66.2479 44.0514 66.9379C43.2714 67.6279 42.5254 67.2839 42.5254 67.2839" fill="white"/>
<path d="M43.2814 64.5759C43.2814 64.5759 44.2954 63.3759 44.7414 64.0479C45.1874 64.7199 44.8314 66.2479 44.0514 66.9379C43.2714 67.6279 42.5254 67.2839 42.5254 67.2839" stroke="#263238" stroke-width="0.2" stroke-linecap="round" stroke-linejoin="round"/>
<path d="M42.9193 61.4961C42.7663 61.635 42.5841 61.7378 42.3861 61.797C42.1882 61.8562 41.9794 61.8702 41.7753 61.8381C41.3973 61.7832 41.0306 61.6677 40.6893 61.4961C40.6893 61.4961 40.0033 61.9541 39.4893 61.7821C38.9753 61.6101 38.4013 61.4381 38.4013 61.4381C38.0253 61.6688 37.5767 61.7509 37.1433 61.6681C36.3433 61.5521 36.1133 61.3821 36.1133 61.3821C36.1133 61.3821 35.6553 61.7821 35.1993 61.7821C34.9124 61.7811 34.6258 61.7617 34.3413 61.7241C34.2161 61.7862 34.0805 61.8249 33.9413 61.8381H33.5413C33.5413 61.8381 33.3713 65.2701 33.9413 67.7301C34.5113 70.1901 36.7413 72.0201 37.6593 72.5301C38.5773 73.0401 40.1453 72.5881 40.6033 72.0161C41.0613 71.4441 42.5213 69.7281 43.2033 68.2401C43.8853 66.7521 44.1193 62.4061 44.1193 62.1201C44.1193 61.8341 43.1993 62.1821 42.9193 61.4961Z" fill="white" stroke="#263238" stroke-width="0.2" stroke-linecap="round" stroke-linejoin="round"/>
<path d="M39.6918 63.4979C39.6139 63.531 39.548 63.587 39.5026 63.6584C39.4573 63.7298 39.4347 63.8133 39.4378 63.8979C39.4578 64.5459 39.5538 66.0859 40.0038 66.3559C40.5758 66.6979 43.2458 66.9559 43.8938 66.5259C44.2358 66.2979 44.9798 64.2959 44.6938 63.7259C44.4078 63.1559 41.9798 62.5579 39.6918 63.4979Z" stroke="#263238" stroke-width="0.2" stroke-linecap="round" stroke-linejoin="round"/>
<path d="M37.9255 63.4979C38.0033 63.531 38.0693 63.587 38.1146 63.6584C38.16 63.7298 38.1826 63.8133 38.1795 63.8979C38.1595 64.5459 38.0635 66.0859 37.6135 66.3559C37.0415 66.6979 34.3715 66.9559 33.7235 66.5259C33.3815 66.2979 32.6375 64.2959 32.9235 63.7259C33.2095 63.1559 35.6375 62.5579 37.9255 63.4979Z" stroke="#263238" stroke-width="0.2" stroke-linecap="round" stroke-linejoin="round"/>
<path d="M39.6914 63.4979C39.6914 63.4979 38.6314 63.2679 37.9434 63.6119" stroke="#263238" stroke-width="0.2" stroke-linecap="round" stroke-linejoin="round"/>
<path d="M39.3185 64.1841H38.2305" stroke="#263238" stroke-width="0.2" stroke-linecap="round" stroke-linejoin="round"/>
<path d="M41.0335 65.6719C41.2234 65.6719 41.3775 65.3898 41.3775 65.0419C41.3775 64.6939 41.2234 64.4119 41.0335 64.4119C40.8435 64.4119 40.6895 64.6939 40.6895 65.0419C40.6895 65.3898 40.8435 65.6719 41.0335 65.6719Z" fill="#263238"/>
<path d="M37.1448 65.6719C37.3348 65.6719 37.4888 65.3898 37.4888 65.0419C37.4888 64.6939 37.3348 64.4119 37.1448 64.4119C36.9548 64.4119 36.8008 64.6939 36.8008 65.0419C36.8008 65.3898 36.9548 65.6719 37.1448 65.6719Z" fill="#263238"/>
<path d="M39.1998 65.4419C39.1998 65.4419 39.1418 66.2419 39.4278 66.5279C39.7138 66.8139 40.0558 67.0439 39.6558 67.3279C39.2558 67.6119 38.9138 67.8419 38.3418 67.3279" stroke="#263238" stroke-width="0.2" stroke-linecap="round" stroke-linejoin="round"/>
<path d="M40.231 68.53C40.231 68.53 38.801 69.218 37.543 68.302" stroke="#263238" stroke-width="0.2" stroke-linecap="round" stroke-linejoin="round"/>
<path d="M42.1195 63.7839C41.8934 63.6148 41.6284 63.5051 41.3489 63.4649C41.0693 63.4247 40.7842 63.4553 40.5195 63.5539" stroke="#263238" stroke-width="0.2" stroke-linecap="round" stroke-linejoin="round"/>
<path d="M37.4291 63.7259C37.4291 63.7259 36.1131 63.0399 35.3691 64.1259" stroke="#263238" stroke-width="0.2" stroke-linecap="round" stroke-linejoin="round"/>
<path d="M42.178 74.6499L37.716 85.6319L35.084 75.1079" stroke="#263238" stroke-width="0.2" stroke-linecap="round" stroke-linejoin="round"/>
<path d="M37.1445 86.1481C37.1445 86.2727 37.1815 86.3945 37.2507 86.4981C37.3199 86.6017 37.4183 86.6824 37.5334 86.7301C37.6486 86.7778 37.7752 86.7903 37.8974 86.766C38.0196 86.7417 38.1319 86.6816 38.22 86.5935C38.3081 86.5054 38.3681 86.3932 38.3924 86.271C38.4167 86.1488 38.4043 86.0221 38.3566 85.907C38.3089 85.7919 38.2281 85.6935 38.1245 85.6242C38.0209 85.555 37.8991 85.5181 37.7745 85.5181C37.6074 85.5181 37.4472 85.5844 37.3291 85.7026C37.2109 85.8207 37.1445 85.981 37.1445 86.1481Z" fill="#263238" stroke="#263238" stroke-width="0.2" stroke-linecap="round" stroke-linejoin="round"/>
<path d="M23.557 95.5859H40.793V95.0519H23.557V95.5859Z" fill="#808080" stroke="#263238" stroke-width="0.2" stroke-linecap="round" stroke-linejoin="round"/>
<path d="M10.9766 83.8401H28.2866L31.7946 95.5841H14.4846L10.9766 83.8401Z" fill="#808080" stroke="#263238" stroke-width="0.2" stroke-linecap="round" stroke-linejoin="round"/>
</svg>
